<?xml version="1.0" standalone="no"?>
<!DOCTYPE svg PUBLIC "-//W3C//DTD SVG 20010904//EN"
 "http://www.w3.org/TR/2001/REC-SVG-20010904/DTD/svg10.dtd">
<svg version="1.0" xmlns="http://www.w3.org/2000/svg"
 width="400.000000pt" height="300.000000pt" viewBox="0 0 400.000000 300.000000"
 preserveAspectRatio="xMidYMid meet">

<g transform="translate(0.000000,300.000000) scale(0.100000,-0.100000)"
fill="#000000" stroke="none">
<path d="M2225 2854 c-11 -3 -56 -12 -100 -20 -152 -29 -393 -118 -595 -219
-98 -48 -361 -197 -357 -201 2 -2 40 12 85 31 199 84 479 169 657 201 106 19
258 18 323 -1 219 -65 178 -310 -100 -587 -53 -54 -101 -98 -105 -98 -4 0 -34
68 -67 151 l-58 151 -37 -7 c-20 -4 -39 -10 -43 -13 -3 -4 -29 -63 -56 -132
-27 -69 -82 -196 -122 -282 l-72 -157 -102 -40 c-92 -36 -232 -80 -297 -95
-23 -5 -28 -13 -34 -53 -10 -69 -66 -235 -118 -346 -33 -70 -41 -94 -28 -90 9
4 82 37 164 74 81 37 147 65 147 62 0 -15 -114 -166 -166 -220 l-61 -62 66
-38 c84 -49 180 -144 213 -211 15 -29 29 -49 32 -44 3 5 55 175 116 378 61
203 114 371 118 375 4 3 66 43 137 88 72 45 139 88 151 96 20 15 21 12 53
-107 95 -352 291 -881 471 -1272 l31 -69 60 61 c85 86 207 161 333 206 13 4
15 10 8 19 -242 307 -446 660 -673 1164 l-70 156 53 46 c297 255 489 517 534
731 36 170 -25 293 -172 350 -47 18 -83 24 -179 26 -66 2 -129 1 -140 -2z
m-362 -922 l14 -93 -66 -39 c-36 -22 -66 -38 -68 -37 -1 2 19 74 45 161 52
176 50 176 75 8z"/>
</g>
</svg>
